HIERARCHY
ROOT Hips
{
	OFFSET -0.179506 -22.333345 2.821913
	CHANNELS 6 Xposition Yposition Zposition Zrotation Yrotation Xrotation 
	JOINT LeftUpLeg
	{
		OFFSET 6.951974 -9.140623 -0.681533
		CHANNELS 3 Zrotation Yrotation Xrotation
		JOINT LeftLeg
		{
			OFFSET 3.427654 -37.519855 -0.449580
			CHANNELS 3 Zrotation Yrotation Xrotation
			JOINT LeftFoot
			{
				OFFSET -1.359570 -39.796059 -4.369333
				CHANNELS 3 Zrotation Yrotation Xrotation
				JOINT LeftToe
				{
					OFFSET 2.635814 -5.579078 11.928840
					CHANNELS 3 Zrotation Yrotation Xrotation
					End Site
					{
						OFFSET 0.000000 0.000000 0.000000
					}
				}
			}
		}
	}
	JOINT RightUpLeg
	{
		OFFSET -6.767048 -9.052170 -0.431982
		CHANNELS 3 Zrotation Yrotation Xrotation
		JOINT RightLeg
		{
			OFFSET -3.829005 -38.256897 -0.885003
			CHANNELS 3 Zrotation Yrotation Xrotation
			JOINT RightFoot
			{
				OFFSET 1.577377 -39.841461 -4.231180
				CHANNELS 3 Zrotation Yrotation Xrotation
				JOINT RightToe
				{
					OFFSET -2.537174 -4.814398 12.334795
					CHANNELS 3 Zrotation Yrotation Xrotation
					End Site
					{
						OFFSET 0.000000 0.000000 0.000000
					}
				}
			}
		}
	}
	JOINT Spine
	{
		OFFSET -0.253288 10.896323 -2.669631
		CHANNELS 3 Zrotation Yrotation Xrotation
		JOINT Spine1
		{
			OFFSET 0.548704 13.518043 0.109247
			CHANNELS 3 Zrotation Yrotation Xrotation
			JOINT Spine2
			{
				OFFSET 0.145701 5.292222 2.542457
				CHANNELS 3 Zrotation Yrotation Xrotation
				JOINT Neck
				{
					OFFSET -0.277840 21.387037 -4.285703
					CHANNELS 3 Zrotation Yrotation Xrotation
					JOINT Head
					{
						OFFSET 0.515184 6.496960 5.134897
						CHANNELS 3 Zrotation Yrotation Xrotation
						End Site
						{
							OFFSET 0.000000 0.000000 0.000000
						}
					}
				}
				JOINT LeftShoulder
				{
					OFFSET 7.884473 12.174932 -3.408961
					CHANNELS 3 Zrotation Yrotation Xrotation
					JOINT LeftArm
					{
						OFFSET 9.097692 3.046888 -0.886815
						CHANNELS 3 Zrotation Yrotation Xrotation
						JOINT LeftForeArm
						{
							OFFSET 25.961220 -1.277207 -2.745643
							CHANNELS 3 Zrotation Yrotation Xrotation
							JOINT LeftHand
							{
								OFFSET 24.923361 0.898606 -0.117091
								CHANNELS 3 Zrotation Yrotation Xrotation
								End Site
								{
									OFFSET 0.000000 0.000000 0.000000
								}
							}
						}
					}
				}
				JOINT RightShoulder
				{
					OFFSET -8.175920 11.883285 -3.861528
					CHANNELS 3 Zrotation Yrotation Xrotation
					JOINT RightArm
					{
						OFFSET -9.601238 3.255117 -0.914307
						CHANNELS 3 Zrotation Yrotation Xrotation
						JOINT RightForeArm
						{
							OFFSET -25.374195 -1.332924 -2.140099
							CHANNELS 3 Zrotation Yrotation Xrotation
							JOINT RightHand
							{
								OFFSET -25.529810 0.777228 -0.555919
								CHANNELS 3 Zrotation Yrotation Xrotation
								End Site
								{
									OFFSET 0.000000 0.000000 0.000000
								}
							}
						}
					}
				}
			}
		}
	}
}
MOTION
Frames: 16
Frame Time: 0.033333
-65.308525 98.764366 95.003036 3.947803 -8.569290 -119.868792 50.078802 8.979089 10.611485 -4.444455 -25.014497 34.390940 -5.131187 16.025250 -14.517476 nan nan nan -49.177992 -30.752711 -30.408594 7.652218 0.330788 23.048860 7.656108 -0.604551 -28.973418 nan nan nan 2.907982 -3.831256 7.701761 2.168132 -2.004566 1.902574 5.551387 0.798934 -12.374870 -5.673370 -4.225058 -14.695479 11.293134 -12.738977 -33.282756 36.749183 -14.917274 -14.368765 15.872253 -19.173337 -36.718116 3.483998 -34.617631 -2.579280 36.935176 4.019430 -48.662505 -25.281415 28.054007 -9.618410 -18.825958 29.807656 -51.980237 -12.267142 19.124402 -34.500980 -53.691869 -0.702577 -37.263461 
-66.472977 99.021873 95.327301 4.493499 -10.231520 -120.503396 48.617503 7.477939 12.593079 -3.536299 -26.270722 31.693026 -5.003037 16.861408 -14.034073 nan nan nan -49.195793 -31.299329 -31.941658 7.340094 -0.745145 21.212580 7.779966 -1.118440 -29.464297 nan nan nan 3.502935 -4.279708 8.063968 2.325334 -1.863945 1.526340 5.684402 0.500918 -11.904185 -5.667668 -4.240842 -15.047384 10.745346 -13.191591 -32.886368 37.499978 -14.108401 -14.755397 15.961758 -19.827766 -36.943467 2.712003 -33.847417 -1.961620 36.360846 4.005148 -48.566527 -25.307838 27.572788 -9.978806 -18.226233 30.732776 -51.565031 -12.503150 19.111122 -34.702296 -54.298442 -0.681820 -37.019016 
-67.655853 99.297112 95.672173 5.143383 -11.956099 -121.053144 47.290670 6.274238 14.260163 -2.592317 -27.172428 29.203108 -4.616918 17.450386 -13.459408 nan nan nan -48.983742 -31.898610 -33.755338 6.972827 -1.962530 19.584431 7.584325 -1.560606 -29.468187 nan nan nan 4.238139 -4.629479 8.127337 2.475864 -1.618057 1.289633 5.728075 0.363695 -11.357250 -5.808925 -4.212486 -15.191532 10.485355 -13.809914 -32.683975 38.525759 -13.317639 -15.110904 15.968886 -20.929950 -37.734637 2.361624 -32.362998 -2.719110 34.742333 4.782988 -49.896864 -25.627448 26.682167 -9.884202 -17.402272 31.467186 -51.052923 -12.867399 19.287371 -34.692901 -54.804905 -1.350009 -37.675904 
-68.865250 99.558754 96.037758 5.968816 -13.652573 -121.477918 46.086544 5.616618 15.690480 -1.380315 -27.668442 26.806112 -4.561301 17.414488 -12.977290 nan nan nan -48.883632 -32.063288 -35.582265 6.864477 -3.134072 17.898400 7.885384 -1.830092 -30.344387 nan nan nan 4.785024 -4.678374 7.908099 2.850744 -1.550107 1.487311 5.836065 0.257901 -11.071605 -5.216564 -3.620497 -15.946504 9.683158 -14.630239 -31.821014 39.090009 -14.249509 -14.851213 16.610508 -18.764691 -35.729767 1.770667 -35.204250 1.900377 45.095141 -3.571254 -34.659641 -26.389146 27.512037 -9.946331 -16.705178 29.689773 -50.692700 -11.909889 19.493667 -35.745511 -55.558212 0.119124 -37.570807 
-70.055740 99.823738 96.358208 6.781868 -15.463974 -122.105361 44.991658 5.083035 17.141317 -0.100844 -28.377475 24.244189 -4.636467 17.658747 -12.311378 nan nan nan -48.255341 -32.529810 -37.586670 6.309625 -3.954255 16.476415 7.767068 -2.273475 -30.554847 nan nan nan 5.627190 -4.887542 7.994600 3.096955 -1.388797 1.412339 5.838554 0.338500 -10.688153 -5.148441 -3.314203 -15.620660 9.697519 -15.492974 -31.993782 40.306516 -13.884943 -15.327314 16.784383 -19.463535 -36.091658 0.943514 -33.117565 2.745329 44.407838 -3.637805 -32.712495 -26.760351 26.981145 -10.391653 -16.400002 30.199461 -50.665705 -11.648351 18.461230 -35.513371 -56.033056 -0.565235 -37.039495 
-71.231155 100.109161 96.657043 7.390925 -17.382033 -122.763289 43.853258 4.281357 18.350023 0.798299 -28.870245 21.854964 -3.635360 18.472426 -11.449126 nan nan nan -47.929613 -33.182336 -39.245428 6.270604 -3.949283 15.323785 7.592196 -2.452988 -31.519540 nan nan nan 6.367856 -5.229740 8.211159 3.263143 -1.263163 1.618717 6.275334 0.422334 -10.833761 -5.581477 -4.508933 -14.812950 9.959016 -15.233478 -32.320302 41.659300 -13.771075 -15.143947 15.597447 -19.069733 -34.684274 0.390472 -33.960377 3.527455 55.224565 -3.510371 -26.218669 -28.066053 27.559232 -9.729597 -16.566877 28.881346 -51.905087 -10.634489 17.520440 -36.559478 -61.061561 -1.502023 -35.017795 
-72.417244 100.409737 96.943222 8.213125 -19.217147 -123.626439 42.817049 4.019839 19.570801 2.032396 -28.860951 19.630764 -3.671154 18.903691 -11.089474 nan nan nan -47.541517 -33.469530 -41.103159 5.948241 -4.219612 14.569307 7.567964 -2.345978 -31.938404 nan nan nan 7.192674 -5.578351 8.911814 3.571265 -1.000608 1.514453 6.413526 0.307919 -10.630087 -5.626314 -4.242643 -15.720755 9.415805 -16.164460 -31.845451 42.718098 -13.143863 -15.272797 15.654770 -19.162030 -35.337729 0.517125 -32.353743 2.775142 52.763861 -4.939457 -27.329675 -28.757221 27.129285 -9.991805 -16.561034 29.398408 -52.078149 -10.890952 16.466724 -36.867337 -59.532276 -1.286335 -36.290768 
-73.623444 100.714455 97.191994 9.137340 -21.085841 -124.560411 41.944742 4.083787 20.635575 3.060229 -28.613386 17.616467 -3.583017 19.448208 -10.793472 nan nan nan -47.062377 -33.641627 -43.066588 5.615486 -4.242347 14.113773 7.214212 -2.579271 -32.022214 nan nan nan 8.050137 -5.949617 9.490415 3.916043 -0.646201 1.368186 6.617384 0.323645 -10.291915 -5.817149 -4.579460 -15.822853 9.098350 -16.761091 -31.944410 43.822488 -12.640209 -15.246840 15.021923 -19.409236 -36.209372 1.706648 -30.625546 1.851790 50.580937 -5.133435 -28.517701 -29.668896 26.834917 -10.339722 -16.141804 29.840975 -52.245325 -11.450813 15.454574 -36.654994 -57.954123 -1.156062 -37.195225 
-74.829887 101.059364 97.435745 9.926793 -22.983579 -125.514049 41.123318 4.400124 21.423784 3.885992 -28.178251 15.879978 -3.458975 19.950549 -10.782648 nan nan nan -46.473370 -34.150703 -45.113917 5.350627 -3.761742 13.978918 6.296638 -2.720324 -32.153428 nan nan nan 8.994654 -6.341038 10.394180 4.121995 -0.366262 0.788296 6.721307 0.244339 -9.708558 -5.987885 -4.854841 -16.355205 9.033747 -17.361124 -31.949682 44.768337 -11.863991 -15.499161 14.591316 -19.599494 -36.706990 2.364171 -29.380549 1.591499 49.140934 -4.857726 -29.415806 -30.212732 26.624217 -10.360606 -16.447090 29.838253 -53.061720 -12.175604 14.130923 -37.440495 -59.370394 -1.687579 -36.219460 
-76.042503 101.456802 97.692780 10.314482 -24.951023 -126.244997 40.198105 4.845238 21.621260 4.503515 -27.463318 14.580772 -3.387723 20.265187 -11.144611 nan nan nan -46.483267 -35.012460 -46.780361 5.167921 -3.570477 14.061388 6.599244 -2.956438 -33.468615 nan nan nan 9.764160 -6.467849 10.946101 4.330632 -0.293340 0.483122 6.661109 0.110103 -8.804985 -5.778739 -4.480394 -18.079208 8.745478 -18.589841 -31.421977 45.820542 -10.752240 -15.411045 14.750606 -19.838673 -37.566319 3.142781 -27.960309 1.161136 46.978585 -5.166549 -31.826337 -30.618429 25.031321 -10.776862 -15.955460 30.204604 -52.728806 -13.000332 13.981831 -37.864911 -58.030564 -1.439676 -37.666651 
-77.258446 101.772461 97.861877 10.850172 -27.020619 -127.275097 39.507717 5.376912 21.871875 4.948233 -26.423270 13.344915 -3.430600 20.683619 -11.258561 nan nan nan -46.425940 -35.515491 -48.174521 4.984196 -3.427030 14.226162 5.758418 -2.223058 -33.403011 nan nan nan 10.620770 -6.890479 11.919162 4.523422 -0.188243 -0.016449 6.785319 0.084770 -8.325570 -5.918361 -4.756831 -17.962096 8.855101 -19.227532 -31.795587 46.684567 -10.348346 -15.346724 14.109388 -19.360142 -38.107736 4.290917 -27.223334 1.168295 43.531282 -5.918904 -34.538682 -31.432231 24.687776 -10.608632 -15.312325 29.701469 -53.160679 -13.878287 13.616183 -38.007859 -57.039598 -1.621665 -38.606265 
-78.491478 102.082703 97.993217 11.396486 -29.170697 -128.220632 38.998511 6.259967 21.810486 5.155546 -25.347088 12.357298 -3.657807 21.018722 -11.413545 nan nan nan -46.485918 -36.021071 -49.474199 4.861620 -3.455150 14.560745 5.292551 -2.177216 -34.041478 nan nan nan 11.478625 -7.348244 12.725071 4.738453 -0.178131 -0.162550 6.928869 -0.016856 -8.218708 -5.739068 -5.401313 -17.448061 8.957237 -19.286615 -32.290766 46.521305 -10.402873 -15.287773 14.779098 -17.912965 -38.805104 4.428515 -27.081234 1.140204 40.303387 -7.406324 -35.779618 -31.514895 25.081212 -10.029012 -15.652655 28.555494 -53.454355 -14.222208 13.142763 -38.455521 -56.730795 -1.816473 -38.471326 
-79.718971 102.377464 98.053558 12.031044 -31.270368 -129.215476 38.457092 7.371931 21.726510 5.265202 -24.367088 11.421872 -3.869864 21.273060 -11.480937 nan nan nan -46.437560 -36.514471 -50.806889 4.704799 -3.587193 14.832193 4.637406 -2.357013 -34.496271 nan nan nan 12.280446 -7.832538 13.788430 4.992929 -0.061582 -0.545936 7.212979 -0.212696 -8.396333 -5.859354 -6.229589 -16.651508 8.956535 -19.081638 -32.715732 46.089476 -10.220391 -15.474495 15.048664 -16.824113 -39.300469 4.398309 -26.913524 1.144594 38.807918 -8.284690 -35.571242 -31.130972 25.496960 -9.902701 -16.506174 27.986371 -54.272826 -13.969203 12.573880 -38.352045 -57.084780 -1.688801 -36.877244 
-80.951263 102.703781 98.092232 12.811960 -33.322118 -130.570013 38.021586 8.604100 21.925917 5.265953 -23.457809 10.580701 -4.136067 21.345597 -11.648333 nan nan nan -46.727982 -36.705760 -51.695206 4.823627 -3.454877 15.245428 4.404844 -1.355642 -35.566087 nan nan nan 12.830527 -8.178860 15.203145 5.318618 0.064609 -0.684382 7.463409 -0.168497 -8.557728 -5.703104 -6.280587 -16.552740 8.755261 -19.518150 -32.802069 46.357017 -9.782022 -15.489488 14.910850 -15.706852 -39.442761 4.677375 -26.270663 0.316060 38.969847 -8.701317 -35.179786 -31.258769 24.995512 -10.353412 -16.299943 27.604390 -54.281493 -14.152260 12.492588 -38.937319 -57.801391 -1.670325 -36.165522 
-82.139244 103.038818 98.083595 13.536744 -35.421814 -131.904428 37.347856 9.650723 21.939508 5.266591 -22.180801 9.884918 -4.227679 21.323872 -11.389631 nan nan nan -47.084473 -36.935235 -52.358144 4.650420 -3.804413 15.414936 4.587765 -0.930879 -35.548163 nan nan nan 13.748417 -8.682869 16.604063 5.521169 0.186583 -1.309487 7.607410 -0.287183 -8.646144 -6.015676 -7.210911 -15.596498 8.848266 -19.482986 -33.196634 46.537055 -9.348922 -15.285890 14.173496 -14.850327 -39.591454 5.008912 -25.266259 -0.134310 38.785691 -8.917057 -35.177244 -31.795066 25.026607 -9.605481 -15.767094 26.727766 -53.886885 -14.885887 12.808814 -39.505541 -58.509558 -2.124931 -37.094094 
-83.325813 103.314209 98.075279 14.371495 -37.416293 -133.279622 36.492324 10.687943 21.925958 5.209623 -20.985962 9.279462 -4.729409 21.400801 -11.791121 nan nan nan -47.146839 -37.281392 -53.424073 4.349703 -4.065348 15.841938 5.129798 -0.790209 -35.573317 nan nan nan 14.500387 -9.048724 17.813729 5.787394 0.317871 -1.617658 7.588788 -0.128694 -8.417312 -5.897072 -7.404546 -15.327096 8.892980 -20.005363 -33.493415 46.825476 -8.463091 -15.094945 13.866801 -14.375750 -39.734040 4.651852 -23.493447 -1.150322 38.942396 -8.220087 -36.119033 -31.667013 24.163205 -9.651416 -16.269968 26.654092 -54.214800 -14.896226 12.098572 -39.927069 -59.209330 -2.083605 -36.626439 
